Coordinates
version=1
nRows=14
nColumns=40
inDegrees=yes

Units are S.I. units (second, meters, Newtons, ...)
Angles are in degrees.

endheader
time	pelvis_tilt	pelvis_list	pelvis_rotation	pelvis_tx	pelvis_ty	pelvis_tz	hip_flexion_r	hip_adduction_r	hip_rotation_r	knee_angle_r	knee_angle_r_beta	ankle_angle_r	subtalar_angle_r	mtp_angle_r	hip_flexion_l	hip_adduction_l	hip_rotation_l	knee_angle_l	knee_angle_l_beta	ankle_angle_l	subtalar_angle_l	mtp_angle_l	lumbar_extension	lumbar_bending	lumbar_rotation	arm_flex_r	arm_add_r	arm_rot_r	elbow_flex_r	pro_sup_r	wrist_flex_r	wrist_dev_r	arm_flex_l	arm_add_l	arm_rot_l	elbow_flex_l	pro_sup_l	wrist_flex_l	wrist_dev_l
     14.70000000	     -3.41154007	     -4.30302876	      1.89431312	      1.09675220	      0.93247473	      0.48775256	     11.49051074	      2.70358179	    -14.44624503	     15.43557538	     15.43557538	      9.49517644	      0.69669702	     -5.19951796	     31.13433043	    -12.11475142	     -0.11015232	     51.24489990	     51.24489990	      9.94264540	    -17.77579423	     10.91585986	    -11.75437025	      5.70073393	      1.68321634	     23.75899491	    -19.49272285	     -1.34116788	     64.99605405	     45.46400537	      0.00000000	      0.00000000	      0.79327637	     -8.52082981	    -11.46712068	     29.06703397	     45.68150044	      0.00000000	      0.00000000
     14.71307143	     -3.66070049	     -4.29254298	      2.30912065	      1.09497540	      0.93252931	      0.48792185	     11.27254301	      2.68650344	    -14.92535656	     15.04472451	     15.04472451	      9.55005327	      1.03365302	     -5.26503827	     31.90274336	    -12.02415183	     -0.66958959	     48.02129127	     48.02129127	     10.24680451	    -17.94734880	     10.99316570	    -11.67186294	      5.75271079	      1.63384777	     25.10070086	    -19.37067291	     -1.47496647	     66.31314931	     45.42942728	      0.00000000	      0.00000000	      0.07970226	     -8.42628326	    -11.47864305	     28.49274610	     45.68752025	      0.00000000	      0.00000000
     14.72614286	     -3.99996610	     -4.31869586	      2.67158612	      1.09309143	      0.93236517	      0.48809325	     11.20358429	      2.71889599	    -15.26386211	     14.71762195	     14.71762195	      9.59494421	      1.15795898	     -5.27061393	     32.58443693	    -11.93417869	     -1.31928646	     44.51638507	     44.51638507	     10.51734486	    -17.79328223	     11.19906372	    -11.50226056	      5.84066389	      1.87124713	     26.42647448	    -19.56190902	     -1.66627091	     67.31729302	     45.40830264	      0.00000000	      0.00000000	     -0.57076364	     -8.22674673	    -11.49869715	     28.19255107	     45.68593352	      0.00000000	      0.00000000
     14.73921429	     -4.09531219	     -4.30840598	      3.06871906	      1.09150549	      0.93263141	      0.48810431	     10.75971486	      2.70783142	    -15.82025221	     14.22712331	     14.22712331	      9.65978263	      1.74804190	     -5.30872715	     32.66344455	    -11.62589214	     -1.77108518	     40.55811296	     40.55811296	     10.47600711	    -17.76123736	     11.14207976	    -11.64288326	      5.90838542	      1.72612863	     27.56122257	    -19.30182688	     -1.78934421	     69.19647004	     45.35460633	      0.00000000	      0.00000000	     -1.33050734	     -8.23224338	    -11.62783735	     27.74681852	     45.70937541	      0.00000000	      0.00000000
     14.75228571	     -4.30822228	     -4.38601399	      3.42439468	      1.08992244	      0.93251017	      0.48802704	     10.49406858	      2.74854610	    -16.51430576	     13.83863853	     13.83863853	      9.82466441	      2.53678348	     -5.26668586	     32.69810130	    -11.39673040	     -2.26123239	     36.37491657	     36.37491657	      9.39109862	    -17.56047632	      8.60444588	    -11.63989087	      6.09174400	      2.35238774	     27.90502531	    -19.80734644	     -2.53472277	     72.34730316	     45.28492636	      0.00000000	      0.00000000	     -1.54580565	     -7.90177204	    -12.44117342	     27.23240925	     45.93297158	      0.00000000	      0.00000000
     14.76535714	     -4.54101904	     -4.41676862	      3.73132046	      1.08831837	      0.93236751	      0.48788358	     10.29887526	      2.78295560	    -16.82562400	     13.49926973	     13.49926973	      9.90675640	      2.73927745	     -5.29897987	     32.76156634	    -11.03990083	     -2.55944176	     32.49867107	     32.49867107	      9.47953593	    -16.68093399	      9.14487221	    -11.54590381	      6.18147646	      2.48325890	     29.11328246	    -19.76360229	     -2.66921779	     73.19641608	     45.26760171	      0.00000000	      0.00000000	     -2.10840082	     -7.81594734	    -12.49008817	     26.96494664	     45.93908710	      0.00000000	      0.00000000
     14.77842857	     -4.72109864	     -4.47682848	      4.01952867	      1.08683871	      0.93224801	      0.48760545	     10.01791388	      2.84504176	    -17.21388228	     13.11413564	     13.11413564	      9.98716221	      3.12118783	     -5.33865458	     32.71676789	    -10.69371716	     -2.73210124	     28.77679995	     28.77679995	      9.51678803	    -15.50473636	      9.63068841	    -11.53369636	      6.30980073	      2.51914077	     30.25734130	    -19.60472296	     -2.78141374	     74.18805803	     45.24460114	      0.00000000	      0.00000000	     -2.64852190	     -7.73551183	    -12.55508356	     26.73449463	     45.94855445	      0.00000000	      0.00000000
     14.79150000	     -4.82251032	     -4.58088277	      4.29607811	      1.08547358	      0.93216833	      0.48716921	      9.63447009	      2.93911368	    -17.70945573	     12.71063192	     12.71063192	     10.09059069	      3.70779297	     -5.39448430	     32.61292789	    -10.41261922	     -2.83416433	     25.39108812	     25.39108812	      9.55547176	    -14.00721964	     10.02449106	    -11.58321079	      6.52647343	      2.51830955	     31.32757774	    -19.36124784	     -2.89294756	     75.28784843	     45.21838162	      0.00000000	      0.00000000	     -3.15306619	     -7.67294033	    -12.66544303	     26.57877601	     45.96941404	      0.00000000	      0.00000000
     14.80457143	     -5.09780200	     -4.86409359	      4.55174725	      1.08396469	      0.93156197	      0.48668934	      9.58722235	      3.20993729	    -18.03923080	     12.52784486	     12.52784486	     10.21174985	      3.86068095	     -5.46618528	     32.94565858	    -10.30509288	     -2.67013550	     22.68271019	     22.68271019	      9.58914024	    -12.51749666	     10.39208761	    -11.37250095	      6.93480041	      2.75392650	     32.36597520	    -19.38471165	     -3.01778019	     75.88186536	     45.20826934	      0.00000000	      0.00000000	     -3.46632112	     -7.54921921	    -12.69854581	     26.49547844	     45.97302815	      0.00000000	      0.00000000
     14.81764286	     -5.09018549	     -4.77951789	      4.70626566	      1.08291463	      0.93175229	      0.48609460	      8.99573691	      3.14699447	    -18.35812083	     12.00689783	     12.00689783	     10.32870421	      4.47066360	     -5.46054641	     32.64263718	     -9.99330095	     -3.08957377	     19.98890047	     19.98890047	      9.68777240	    -10.52512248	     10.81036504	    -11.55731365	      6.84618506	      2.66119168	     33.17860215	    -18.84669499	     -3.05394459	     76.78802175	     45.18486219	      0.00000000	      0.00000000	     -3.87529309	     -7.55729448	    -12.79565390	     26.41253819	     45.99265982	      0.00000000	      0.00000000
     14.83071429	     -5.27254085	     -4.96861299	      4.87161456	      1.08163012	      0.93133066	      0.48539097	      8.80381185	      3.32550682	    -18.59605429	     11.77812472	     11.77812472	     10.47048198	      4.67211453	     -5.50211515	     32.94137585	     -9.91020029	     -3.05198931	     18.25030419	     18.25030419	      9.64502087	     -9.16418563	     11.10271057	    -11.43888687	      7.12185984	      2.83537519	     34.00839844	    -18.66412543	     -3.12374932	     77.24583931	     45.17662933	      0.00000000	      0.00000000	     -4.07701423	     -7.48231591	    -12.82963535	     26.39200924	     45.99917488	      0.00000000	      0.00000000
     14.84378571	     -5.25548394	     -4.93799224	      4.97202019	      1.08072996	      0.93140039	      0.48466532	      8.24105943	      3.32910726	    -18.74039863	     11.33825684	     11.33825684	     10.60158798	      5.11689014	     -5.46701050	     32.85928748	     -9.74318516	     -3.47375188	     16.81107122	     16.81107122	      9.70027059	     -7.61081367	     11.35455773	    -11.58773845	      7.08078395	      2.78010509	     34.66435058	    -18.07172036	     -3.14186211	     77.70228542	     45.16668458	      0.00000000	      0.00000000	     -4.35242988	     -7.51872968	    -12.89489120	     26.39392925	     46.01422658	      0.00000000	      0.00000000
     14.85685714	     -5.38015791	     -5.07088141	      5.03202077	      1.07968813	      0.93101787	      0.48386516	      7.98445779	      3.46165186	    -18.84196256	     11.14419157	     11.14419157	     10.78160271	      5.24419906	     -5.48768941	     33.19112943	     -9.72565357	     -3.58171804	     16.20591655	     16.20591655	      9.58627585	     -6.93380932	     11.45735675	    -11.49674878	      7.25030715	      2.98374546	     35.34147754	    -17.80300539	     -3.16586901	     77.91248783	     45.16418575	      0.00000000	      0.00000000	     -4.40190113	     -7.50874047	    -12.91383606	     26.45052701	     46.02003515	      0.00000000	      0.00000000
     14.86992857	     -5.29169074	     -5.10690494	      5.05827736	      1.07911873	      0.93105008	      0.48301182	      7.29254786	      3.56242457	    -18.92820137	     10.62939337	     10.62939337	     10.92724656	      5.66619128	     -5.38043456	     33.20541751	     -9.74605581	     -4.09090150	     16.03083665	     16.03083665	      9.55730544	     -6.07062331	     11.36347942	    -11.60379088	      7.27040739	      2.82987294	     35.95063674	    -17.00175737	     -3.17386528	     77.79289218	     45.17367879	      0.00000000	      0.00000000	     -4.66041419	     -7.55858040	    -12.98512051	     26.53475184	     46.04054591	      0.00000000	      0.00000000
